# xmcd
#
# Track frame offsets:
#	150
#	10150
#	21449
#	34237
#	46576
#	58012
#	70728
#	80029
#	90448
#	101232
#
# Disc length: 1509 seconds
#
# Revision: 0
# Processed by: cddbd v1.5.2PL0 Copyright (c) Steve Scherf et al.
# Submitted via: EasyCDDAExtractor 10.0.4.1
#
DISCID=7a05e30a
DTITLE=Various Artist - 30 No 1 Country Hits Disk 3
DYEAR=1950
DGENRE=Country
TTITLE0=Jim Reeves - He'll Have To Go (Live)
TTITLE1=Ray Price - Crazy Arms
TTITLE2=Johnny Cash - Folsom Prison Blues
TTITLE3=Hank Williams - Cold Cold Heart
TTITLE4=Eddie Arnold - Cattle Call
TTITLE5=Carl Smith - Let Old Mother Nature Have Her Way
TTITLE6=Webb Pierce - Honky Tonk Song
TTITLE7=Johnny Cash  - There You Go
TTITLE8=Ferlin Husky - Gone
TTITLE9=Hank Williams - Take These Chains From My Heart
EXTD=
EXTT0=
EXTT1=
EXTT2=
EXTT3=
EXTT4=
EXTT5=
EXTT6=
EXTT7=
EXTT8=
EXTT9=
PLAYORDER=
